<svg width="92" height="29" viewBox="0 0 92 29" fill="none" xmlns="http://www.w3.org/2000/svg">
<path d="M73.8253 18.0897V17.4725H73.8694C74.0751 17.4725 74.2662 17.4529 74.4425 17.4137C74.6287 17.3648 74.7805 17.2668 74.8981 17.1198C75.0156 16.9729 75.0744 16.7475 75.0744 16.4438V11.8589C75.0744 11.5552 75.0156 11.3348 74.8981 11.1976C74.7903 11.0506 74.6434 10.9527 74.4572 10.9037C74.2711 10.8547 74.0751 10.8302 73.8694 10.8302H73.8253V10.213H77.4992V10.8302H77.4551C77.2591 10.8302 77.0828 10.8547 76.926 10.9037C76.7791 10.9527 76.6615 11.0506 76.5734 11.1976C76.495 11.3446 76.4558 11.565 76.4558 11.8589V13.6811H77.411L78.469 12.432C78.7532 12.0989 78.9344 11.8442 79.0128 11.6679C79.1009 11.4915 79.145 11.3348 79.145 11.1976C79.145 11.0604 79.0961 10.9674 78.9981 10.9184C78.9001 10.8596 78.7434 10.8302 78.5278 10.8302V10.213H81.6432V10.8302C81.4081 10.8302 81.1828 10.8841 80.9673 10.9919C80.7517 11.0898 80.5362 11.2417 80.3207 11.4474C80.1051 11.6434 79.8651 11.8932 79.6006 12.1969L78.1458 13.9015L78.2633 13.255L80.3354 16.2675C80.5019 16.5124 80.6636 16.728 80.8203 16.9141C80.9771 17.0904 81.1436 17.2276 81.3199 17.3256C81.4963 17.4235 81.6873 17.4725 81.8931 17.4725H81.9372V18.0897H81.7314C81.3199 18.0897 80.9771 18.075 80.7027 18.0456C80.4382 18.0064 80.208 17.9379 80.0121 17.8399C79.8259 17.7419 79.6496 17.5999 79.483 17.4137C79.3165 17.2276 79.1303 16.9778 78.9246 16.6643L77.411 14.4159H76.4558V16.4438C76.4558 16.7378 76.4999 16.9582 76.588 17.1051C76.6762 17.2521 76.7938 17.3501 76.9407 17.399C77.0975 17.448 77.2689 17.4725 77.4551 17.4725H77.4992V18.0897H73.8253Z" fill="#212121"/>
<path d="M61.6412 18.2368C60.8673 18.2368 60.2109 18.0849 59.672 17.7812C59.143 17.4677 58.7413 17.0073 58.467 16.3999C58.1927 15.7925 58.0555 15.0381 58.0555 14.1368C58.0555 13.2355 58.2025 12.486 58.4964 11.8884C58.7903 11.281 59.2067 10.8254 59.7455 10.5217C60.2843 10.218 60.9162 10.0662 61.6412 10.0662C62.4152 10.0662 63.0667 10.218 63.5957 10.5217C64.1345 10.8254 64.5411 11.281 64.8154 11.8884C65.0897 12.486 65.2269 13.2355 65.2269 14.1368C65.2269 15.0381 65.0799 15.7925 64.786 16.3999C64.4921 17.0073 64.0757 17.4677 63.5369 17.7812C63.0079 18.0849 62.376 18.2368 61.6412 18.2368ZM61.6412 17.5314C62.1506 17.5314 62.5572 17.404 62.8609 17.1493C63.1646 16.8848 63.3851 16.4978 63.5222 15.9884C63.6594 15.479 63.7279 14.8617 63.7279 14.1368C63.7279 13.402 63.6594 12.7848 63.5222 12.2852C63.3851 11.7855 63.1646 11.4083 62.8609 11.1536C62.5572 10.8989 62.1506 10.7715 61.6412 10.7715C61.1416 10.7715 60.735 10.8989 60.4215 11.1536C60.1178 11.4083 59.8974 11.7855 59.7602 12.2852C59.623 12.7848 59.5545 13.402 59.5545 14.1368C59.5545 14.8617 59.623 15.479 59.7602 15.9884C59.8974 16.4978 60.1178 16.8848 60.4215 17.1493C60.735 17.404 61.1416 17.5314 61.6412 17.5314Z" fill="#212121"/>
<path d="M44.1351 18.0897V17.4725H44.2526C44.4682 17.4725 44.6641 17.448 44.8405 17.399C45.0266 17.3501 45.1736 17.2521 45.2813 17.1051C45.3989 16.9484 45.4577 16.7182 45.4577 16.4145V10.9478H44.4437C44.2184 10.9478 44.042 10.987 43.9147 11.0653C43.7873 11.1437 43.6844 11.276 43.606 11.4621C43.5375 11.6385 43.4738 11.8932 43.415 12.2263L43.3121 12.7994H42.6215L42.7096 10.213H49.5871L49.6752 12.7994H48.9846L48.8817 12.2263C48.8229 11.8932 48.7543 11.6385 48.6759 11.4621C48.6074 11.276 48.5094 11.1437 48.382 11.0653C48.2547 10.987 48.0783 10.9478 47.853 10.9478H46.839V16.4145C46.839 16.7182 46.8929 16.9484 47.0007 17.1051C47.1182 17.2521 47.2652 17.3501 47.4415 17.399C47.6277 17.448 47.8285 17.4725 48.044 17.4725H48.1616V18.0897H44.1351Z" fill="#212121"/>
<path d="M28.627 21.7636C28.3722 21.7636 28.1616 21.7195 27.9951 21.6313C27.8383 21.5431 27.7207 21.4158 27.6424 21.2492C27.5738 21.0925 27.5395 20.9014 27.5395 20.6761C27.5395 20.6271 27.5395 20.5781 27.5395 20.5292C27.5395 20.49 27.5444 20.4508 27.5542 20.4116C27.7012 20.441 27.8383 20.4606 27.9657 20.4704C28.093 20.49 28.2155 20.4998 28.3331 20.4998C28.7935 20.4998 29.1756 20.3675 29.4793 20.103C29.783 19.8385 30.072 19.3878 30.3463 18.751L30.8313 17.6489L30.5667 18.4424L27.6718 11.6091C27.5444 11.3054 27.4121 11.0996 27.275 10.9919C27.1378 10.8841 26.9272 10.8302 26.6431 10.8302H26.599V10.213H30.1259V10.8302H30.0818C29.7879 10.8302 29.5675 10.889 29.4205 11.0066C29.2833 11.1143 29.2148 11.2907 29.2148 11.5356C29.2148 11.614 29.2246 11.6972 29.2442 11.7854C29.2638 11.8736 29.2931 11.9716 29.3323 12.0793L30.4051 14.6951C30.4933 14.9008 30.5863 15.1311 30.6843 15.3858C30.7823 15.6307 30.8802 15.8903 30.9782 16.1646C31.086 16.4389 31.1888 16.7231 31.2868 17.017H30.9929C31.1007 16.7231 31.1937 16.4634 31.2721 16.2381C31.3603 16.0128 31.4387 15.8021 31.5072 15.6062C31.5856 15.4103 31.6542 15.2241 31.713 15.0478L32.7564 12.1822C32.8053 12.0646 32.8396 11.952 32.8592 11.8442C32.8788 11.7266 32.8886 11.6287 32.8886 11.5503C32.8886 11.2956 32.8053 11.1143 32.6388 11.0066C32.482 10.889 32.242 10.8302 31.9187 10.8302H31.8746V10.213H34.9019V10.8302H34.8578C34.6716 10.8302 34.5149 10.8596 34.3875 10.9184C34.27 10.9772 34.1622 11.0898 34.0642 11.2564C33.9663 11.4229 33.8585 11.663 33.7409 11.9765L31.2868 18.5894C30.9929 19.3731 30.7137 19.9952 30.4492 20.4557C30.1945 20.9259 29.925 21.259 29.6409 21.455C29.3568 21.6607 29.0188 21.7636 28.627 21.7636Z" fill="#212121"/>
<path d="M11.2235 18.2367C10.861 18.2367 10.6063 18.1387 10.4593 17.9428C10.3124 17.7468 10.2389 17.5068 10.2389 17.2227C10.2389 17.1639 10.2389 17.1051 10.2389 17.0464C10.2487 16.9778 10.2585 16.9239 10.2683 16.8847C10.3565 16.8945 10.4397 16.9043 10.5181 16.9141C10.6063 16.9239 10.6895 16.9288 10.7679 16.9288C11.15 16.9288 11.4684 16.821 11.7231 16.6055C11.9778 16.39 12.1836 16.003 12.3403 15.4446C12.5069 14.8763 12.6244 14.0632 12.693 13.0051C12.7028 12.8974 12.7077 12.7896 12.7077 12.6818C12.7175 12.5741 12.7224 12.4712 12.7224 12.3732C12.7322 12.2655 12.7371 12.1577 12.7371 12.0499C12.7469 11.9422 12.7518 11.8344 12.7518 11.7266C12.7518 11.3837 12.6783 11.1486 12.5314 11.0213C12.3844 10.8939 12.1542 10.8302 11.8407 10.8302H11.4733V10.213H18.5859V10.8302H18.5418C18.3262 10.8302 18.1254 10.8547 17.9393 10.9037C17.7629 10.9527 17.616 11.0506 17.4984 11.1976C17.3906 11.3446 17.3367 11.5748 17.3367 11.8883V16.4145C17.3367 16.7182 17.3906 16.9484 17.4984 17.1051C17.616 17.2521 17.7629 17.3501 17.9393 17.399C18.1254 17.448 18.3262 17.4725 18.5418 17.4725H18.5859V18.0897H14.8385V17.4725H14.8826C15.0884 17.4725 15.2696 17.448 15.4264 17.399C15.5929 17.3501 15.7203 17.2521 15.8084 17.1051C15.9064 16.9484 15.9554 16.7182 15.9554 16.4145V10.9478H13.6188L13.5013 13.1521C13.4131 14.8372 13.178 16.1059 12.7959 16.9582C12.4138 17.8105 11.8897 18.2367 11.2235 18.2367Z" fill="#212121"/>
<path d="M60.6889 15.0909C60.4232 15.3108 60.6092 15.7072 60.9735 15.7072H61.6226C63.7975 15.7105 65.9686 15.7038 68.1435 15.7172C71.4381 15.7405 74.3873 15.3874 77.1467 13.955C82.6656 11.0835 85.5855 7.4665 88.0337 3.35254C88.4967 2.38651 88.1931 0.947451 88.9142 0.774232C90.6033 0.364501 89.7417 3.22928 88.9598 4.50178C86.2877 8.87224 82.7035 12.6059 76.5622 15.3208C73.9698 16.4667 70.8498 16.5733 67.726 16.5133C65.403 16.4667 63.0687 16.6132 60.7458 16.6932C59.497 16.7365 58.7721 17.1496 58.2938 17.9424C57.8611 18.6452 57.1551 19.3581 56.2783 19.8478C55.7508 20.1443 53.1963 21.48 51.3934 21.9897C50.4141 22.2662 49.3247 22.123 50.285 20.5573C51.1239 19.1949 53.5037 17.3794 55.3332 17.0296C57.1627 16.6799 58.1382 15.9337 58.9277 14.891C59.1365 14.6179 58.8442 14.2648 58.4836 14.3447C58.1913 14.4114 57.9332 14.4813 57.6903 14.5413C54.0845 15.4407 50.4938 16.2402 46.8918 17.1496C45.3128 17.5493 43.8249 17.7725 42.4964 16.7398C42.2041 16.5133 41.2628 16.4467 40.7504 16.5599C39.3119 16.8797 37.8657 17.2495 36.5714 17.7558C34.0246 18.7518 31.5688 19.8544 28.9194 20.9737C27.6024 21.5233 24.1787 22.4561 23.2715 21.9897C22.2315 21.4534 21.9431 20.2442 22.7174 19.4314C23.4347 18.6752 24.5545 17.9424 25.64 17.3095C26.5092 16.8064 28.3083 15.957 29.5571 15.3374C29.9253 15.1542 29.7697 14.6612 29.3445 14.6712C23.1994 14.8278 7.35855 15.5173 1.1527 15.3108C0.655468 15.2941 0.617512 14.6345 1.11474 14.5979C1.11853 14.5979 1.12233 14.5979 1.12613 14.5979C2.56847 14.5279 21.8975 14.2914 27.4771 13.8051C28.0085 13.7585 28.5437 13.7385 29.0789 13.7485C32.7454 13.8184 35.6187 12.6292 38.196 11.0636C39.5168 10.2608 43.2859 9.01824 44.2272 10.1908C45.2444 11.46 42.0903 12.7491 40.7542 13.1922C39.6307 13.5686 38.3136 13.7518 37.0535 13.9117C35.0228 14.1649 33.2427 14.6978 31.6333 15.524C29.3635 16.6932 27.0558 17.8291 24.8277 19.0317C24.0383 19.4547 23.1766 19.9877 23.8409 20.7672C24.1901 21.1769 25.8715 21.1269 26.9609 20.6639C30.1378 19.3315 33.3148 17.9957 36.431 16.6099C38.0214 15.897 39.7673 15.5506 41.6462 15.5006C42.4622 15.4807 43.4149 15.6139 44.0868 15.8904C45.0053 16.2735 45.8024 16.3634 46.8044 16.1202C51.5642 14.971 56.3618 13.8917 61.0798 12.6792C62.8486 12.2228 67.2591 10.2608 67.9233 10.1042C68.06 10.0709 68.2118 10.0642 68.3712 10.0742C68.9557 10.1009 69.1911 10.7971 68.6825 11.0502C68.6787 11.0536 68.6749 11.0536 68.6711 11.0569C67.5172 11.6165 66.2988 12.1329 65.0424 12.5992C63.4179 13.2221 62.0211 13.975 60.6889 15.0909ZM56.21 17.8058C55.3332 17.6795 52.5567 19.3462 51.9608 20.179C51.2434 21.1817 51.8147 20.9937 52.551 20.7039C54.001 20.1376 54.6159 19.7245 55.8115 18.7652C56.1341 18.5087 56.7186 17.8791 56.21 17.8058ZM38.9323 12.6325C40.424 12.3694 43.0126 11.4198 42.4964 10.9701C42.1965 10.6703 39.6193 11.3334 38.6666 11.9496C37.8354 12.4826 37.8392 12.8257 38.9323 12.6325Z" fill="#17C1FB"/>
<path d="M73.8253 18.0897V17.4725H73.8694C74.0751 17.4725 74.2662 17.4529 74.4425 17.4137C74.6287 17.3648 74.7805 17.2668 74.8981 17.1198C75.0156 16.9729 75.0744 16.7475 75.0744 16.4438V11.8589C75.0744 11.5552 75.0156 11.3348 74.8981 11.1976C74.7903 11.0506 74.6434 10.9527 74.4572 10.9037C74.2711 10.8547 74.0751 10.8302 73.8694 10.8302H73.8253V10.213H77.4992V10.8302H77.4551C77.2591 10.8302 77.0828 10.8547 76.926 10.9037C76.7791 10.9527 76.6615 11.0506 76.5734 11.1976C76.495 11.3446 76.4558 11.565 76.4558 11.8589V13.6811H77.411L78.469 12.432C78.7532 12.0989 78.9344 11.8442 79.0128 11.6679C79.1009 11.4915 79.145 11.3348 79.145 11.1976C79.145 11.0604 79.0961 10.9674 78.9981 10.9184C78.9001 10.8596 78.7434 10.8302 78.5278 10.8302V10.213H81.6432V10.8302C81.4081 10.8302 81.1828 10.8841 80.9673 10.9919C80.7517 11.0898 80.5362 11.2417 80.3207 11.4474C80.1051 11.6434 79.8651 11.8932 79.6006 12.1969L78.1458 13.9015L78.2633 13.255L80.3354 16.2675C80.5019 16.5124 80.6636 16.728 80.8203 16.9141C80.9771 17.0904 81.1436 17.2276 81.3199 17.3256C81.4963 17.4235 81.6873 17.4725 81.8931 17.4725H81.9372V18.0897H81.7314C81.3199 18.0897 80.9771 18.075 80.7027 18.0456C80.4382 18.0064 80.208 17.9379 80.0121 17.8399C79.8259 17.7419 79.6496 17.5999 79.483 17.4137C79.3165 17.2276 79.1303 16.9778 78.9246 16.6643L77.411 14.4159H76.4558V16.4438C76.4558 16.7378 76.4999 16.9582 76.588 17.1051C76.6762 17.2521 76.7938 17.3501 76.9407 17.399C77.0975 17.448 77.2689 17.4725 77.4551 17.4725H77.4992V18.0897H73.8253Z" fill="#212121"/>
<path fill-rule="evenodd" clip-rule="evenodd" d="M59.672 17.7812C60.2109 18.0849 60.8673 18.2368 61.6412 18.2368C62.376 18.2368 63.0079 18.0849 63.5369 17.7812C63.8923 17.5745 64.1944 17.3038 64.4432 16.9692L63.2442 16.6777C63.1361 16.8638 63.0083 17.021 62.8609 17.1493C62.5572 17.404 62.1506 17.5314 61.6412 17.5314C61.1416 17.5314 60.735 17.404 60.4215 17.1493C60.1178 16.8848 59.8974 16.4978 59.7602 15.9884C59.623 15.479 59.5545 14.8617 59.5545 14.1368C59.5545 13.402 59.623 12.7848 59.7602 12.2852C59.8974 11.7855 60.1178 11.4083 60.4215 11.1536C60.735 10.8989 61.1416 10.7715 61.6412 10.7715C62.1506 10.7715 62.5572 10.8989 62.8609 11.1536C63.1646 11.4083 63.3851 11.7855 63.5222 12.2852C63.6594 12.7848 63.7279 13.402 63.7279 14.1368C63.7279 14.5206 63.7087 14.8742 63.6703 15.1976H65.1486C65.2008 14.8701 65.2269 14.5165 65.2269 14.1368C65.2269 13.2355 65.0897 12.486 64.8154 11.8884C64.5411 11.281 64.1345 10.8254 63.5957 10.5217C63.0667 10.218 62.4152 10.0662 61.6412 10.0662C60.9162 10.0662 60.2843 10.218 59.7455 10.5217C59.2067 10.8254 58.7903 11.281 58.4964 11.8884C58.2025 12.486 58.0555 13.2355 58.0555 14.1368C58.0555 15.0381 58.1927 15.7925 58.467 16.3999C58.7413 17.0073 59.143 17.4677 59.672 17.7812Z" fill="#212121"/>
<path fill-rule="evenodd" clip-rule="evenodd" d="M44.1351 17.4725V18.0897H46.1483H48.1616V17.4725H48.044C47.8285 17.4725 47.6277 17.448 47.4415 17.399C47.3423 17.3715 47.2523 17.3284 47.1717 17.2698C47.1091 17.2243 47.0521 17.1694 47.0007 17.1051C46.8929 16.9484 46.839 16.7182 46.839 16.4145V15.8823V10.9478H47.853C48.0783 10.9478 48.2547 10.987 48.382 11.0653C48.5094 11.1437 48.6074 11.276 48.6759 11.4621C48.7543 11.6385 48.8229 11.8932 48.8817 12.2263L48.9846 12.7994H49.6752L49.5871 10.213H44.8578L44.9507 10.9478H45.4577V15.8823V16.4145C45.4577 16.7182 45.3989 16.9484 45.2813 17.1051C45.1736 17.2521 45.0266 17.3501 44.8405 17.399C44.763 17.4206 44.6817 17.4374 44.5966 17.4494C44.4881 17.4648 44.3735 17.4725 44.2526 17.4725H44.1351Z" fill="#212121"/>
<path fill-rule="evenodd" clip-rule="evenodd" d="M27.9951 21.6313C28.1616 21.7195 28.3722 21.7636 28.627 21.7636C29.0188 21.7636 29.3568 21.6607 29.6409 21.455C29.8871 21.2852 30.1222 21.0125 30.3463 20.6368L27.7761 21.455C27.8377 21.5251 27.9107 21.5839 27.9951 21.6313ZM30.2402 18.9865L31.4061 18.2678L33.7409 11.9765C33.8585 11.663 33.9663 11.4229 34.0642 11.2564C34.1622 11.0898 34.27 10.9772 34.3875 10.9184C34.5149 10.8596 34.6716 10.8302 34.8578 10.8302H34.9019V10.213H31.8746V10.8302H31.9187C32.242 10.8302 32.482 10.889 32.6388 11.0066C32.8053 11.1143 32.8886 11.2956 32.8886 11.5503C32.8886 11.6287 32.8788 11.7266 32.8592 11.8442C32.8396 11.952 32.8053 12.0646 32.7564 12.1822L31.713 15.0478C31.6542 15.2241 31.5856 15.4103 31.5072 15.6062C31.4387 15.8021 31.3603 16.0128 31.2721 16.2381C31.2328 16.3511 31.1899 16.4726 31.1432 16.6028C31.0895 16.4541 31.0345 16.308 30.9782 16.1646C30.8802 15.8903 30.7823 15.6307 30.6843 15.3858C30.5863 15.1311 30.4933 14.9008 30.4051 14.6951L29.3323 12.0793C29.2931 11.9716 29.2638 11.8736 29.2442 11.7854C29.2246 11.6972 29.2148 11.614 29.2148 11.5356C29.2148 11.2907 29.2833 11.1143 29.4205 11.0066C29.5675 10.889 29.7879 10.8302 30.0818 10.8302H30.1259V10.213H26.599V10.8302H26.6431C26.9272 10.8302 27.1378 10.8841 27.275 10.9919C27.4121 11.0996 27.5444 11.3054 27.6718 11.6091L30.5252 18.3444L30.3463 18.751C30.3112 18.8326 30.2758 18.9111 30.2402 18.9865Z" fill="#212121"/>
<path fill-rule="evenodd" clip-rule="evenodd" d="M10.4593 17.9428C10.6063 18.1387 10.861 18.2367 11.2235 18.2367C11.8897 18.2367 12.4138 17.8105 12.7959 16.9582C13.178 16.1059 13.4131 14.8372 13.5013 13.1521L13.6188 10.9478H15.9554V13.8556H17.3367V11.8883C17.3367 11.5748 17.3906 11.3446 17.4984 11.1976C17.616 11.0506 17.7629 10.9527 17.9393 10.9037C18.1254 10.8547 18.3262 10.8302 18.5418 10.8302H18.5859V10.213H11.4733V10.8302H11.8407C12.1542 10.8302 12.3844 10.8939 12.5314 11.0213C12.6783 11.1486 12.7518 11.3837 12.7518 11.7266C12.7518 11.8344 12.7469 11.9422 12.7371 12.0499C12.7371 12.1577 12.7322 12.2655 12.7224 12.3732C12.7224 12.4712 12.7175 12.5741 12.7077 12.6818C12.7077 12.7896 12.7028 12.8974 12.693 13.0051C12.6244 14.0632 12.5069 14.8763 12.3403 15.4446C12.1836 16.003 11.9778 16.39 11.7231 16.6055C11.4684 16.821 11.15 16.9288 10.7679 16.9288C10.6895 16.9288 10.6063 16.9239 10.5181 16.9141C10.4397 16.9043 10.3565 16.8945 10.2683 16.8847C10.2585 16.9239 10.2487 16.9778 10.2389 17.0464V17.2227C10.2389 17.5068 10.3124 17.7468 10.4593 17.9428ZM15.9554 15.4446V16.4145C15.9554 16.7182 15.9064 16.9484 15.8084 17.1051C15.7203 17.2521 15.5929 17.3501 15.4264 17.399C15.2696 17.448 15.0884 17.4725 14.8826 17.4725H14.8385V18.0897H18.5859V17.4725H18.5418C18.3262 17.4725 18.1254 17.448 17.9393 17.399C17.7629 17.3501 17.616 17.2521 17.4984 17.1051C17.3906 16.9484 17.3367 16.7182 17.3367 16.4145V15.4446H15.9554Z" fill="#212121"/>
</svg>
